# xmcd
#
# Track frame offsets: 
#        180
#        17871
#        45317
#        61564
#        78736
#        94651
#        108059
#        133362
#        149089
#        163838
#        182639
#        202681
#        226117
#        246176
#        264187
#
# Disc length: 3799 seconds
#
# Revision: 0
# Processed by: cddbd v1.5.1PL2 Copyright (c) Steve Scherf et al.
# Submitted via: ExactAudioCopy v0.95b2
#
DISCID=c00ed50f
DTITLE=Catfish and the Crawdaddies - Blues From Another Delta
DYEAR=1998
DGENRE=Blues
TTITLE0=They Often Call Me Catfish
TTITLE1=Jumpin' at the Jazz Jubilee
TTITLE2=Down the Delta
TTITLE3=Tough Love
TTITLE4=Deep Voodoo
TTITLE5=Crawdaddy Stomp
TTITLE6=In the Doghouse
TTITLE7=Uranium Rock
TTITLE8=Lightnin'
TTITLE9=Gold Cadillac
TTITLE10=Red Fires Burnin'
TTITLE11=Blues March
TTITLE12=I Wanna Bop
TTITLE13=Fat Cat Blues
TTITLE14=Amtrakin'
EXTD=
EXTT0=
EXTT1=
EXTT2=
EXTT3=
EXTT4=
EXTT5=
EXTT6=
EXTT7=
EXTT8=
EXTT9=
EXTT10=
EXTT11=
EXTT12=
EXTT13=
EXTT14=
PLAYORDER=
